# xmcd CD database file
#
# Track frame offsets:
#	150
#	19770
#	30485
#	48665
#	67120
#	82697
#	94902
#	107167
#	123997
#	142907
#	156772
#	172712
#	182815
#	194672
#	205695
#	221122
#	235295
#	263800
#
# Disc length: 3547 seconds
#
# Revision: 0
# Processed by: cddbd v1.5.2PL0 Copyright (c) Steve Scherf et al.
# Submitted via: CDex 1.70beta2
#
DISCID=f80dd912
DTITLE=Various Artist - Song Cycle
DYEAR=1900
DGENRE=Jazz
TTITLE0=Elliot Kendall-Everybody's World
TTITLE1=Margo Guryan-Come To Me Slowly
TTITLE2=Roulemaster-Vision On
TTITLE3=The Dawn Chorus-A Night To Be Remembered
TTITLE4=Eddie Hardin and Ray Fenwick-Something In The Air
TTITLE5=Lew London-Crazies
TTITLE6=Bobbie's Rockin' Chair-My Way
TTITLE7=Sonny Chillingworth-Pua Lili Lehua
TTITLE8=Chris Rainbow-You and I
TTITLE9=Tony rivers With Ken Gold-Here I Go Again
TTITLE10=Tender Leaf-Countryside Beauty
TTITLE11=Brian Girl-Sleepy
TTITLE12=EWAN Stephens-Brother We Can Surely Work It Out
TTITLE13=First Class-Baby Blue
TTITLE14=The Loch Ness Mouse-The Breve
TTITLE15=Banjo Joe-Poor Boy, Long Ways From Home
TTITLE16=Noahlewis' Mahlon Taits-Midnight sun
TTITLE17=20th Century Farewell Orchestra-There's A Riot Going On
EXTD=
EXTT0=
EXTT1=
EXTT2=
EXTT3=
EXTT4=
EXTT5=
EXTT6=
EXTT7=
EXTT8=
EXTT9=
EXTT10=
EXTT11=
EXTT12=
EXTT13=
EXTT14=
EXTT15=
EXTT16=
EXTT17=
PLAYORDER=
